<?xml version="1.0" encoding="utf-8"?>
<!-- Generator: Adobe Illustrator 21.1.0, SVG Export Plug-In . SVG Version: 6.00 Build 0)  -->
<svg version="1.1" id="Layer_3" xmlns="http://www.w3.org/2000/svg" xmlns:xlink="http://www.w3.org/1999/xlink" x="0px" y="0px"
	 viewBox="0 0 738 619" style="enable-background:new 0 0 738 619;" xml:space="preserve">
<style type="text/css">
	.st0{fill:#265DBA;}
	.st1{opacity:0.47;fill:#7097C4;}
	.st2{fill:#2C2F2E;}
	.st3{fill:#FFFFFF;}
	.st4{fill:#FFD1FF;}
</style>
<path class="st0" d="M150.6,602.8H72c-4.4,0-8-3.6-8-8V572c0-4.4,3.6-8,8-8h78.6c4.4,0,8,3.6,8,8v22.8
	C158.6,599.2,155,602.8,150.6,602.8z"/>
<path class="st0" d="M665,598h-78.6c-4.4,0-8-3.6-8-8v-22.8c0-4.4,3.6-8,8-8H665c4.4,0,8,3.6,8,8V590C673,594.4,669.4,598,665,598z"
	/>
<path class="st1" d="M536.4,396.6H207.9c-4.4,0-8-3.6-8-8v-90.8c0-4.4,3.6-8,8-8h328.5c4.4,0,8,3.6,8,8v90.8
	C544.4,393,540.8,396.6,536.4,396.6z"/>
<path class="st1" d="M536.4,510.6H207.9c-4.4,0-8-3.6-8-8v-90.8c0-4.4,3.6-8,8-8h328.5c4.4,0,8,3.6,8,8v90.8
	C544.4,507,540.8,510.6,536.4,510.6z"/>
<path class="st1" d="M534,624.7H205.4c-4.4,0-8-3.6-8-8v-90.8c0-4.4,3.6-8,8-8H534c4.4,0,8,3.6,8,8v90.8
	C542,621.1,538.4,624.7,534,624.7z"/>
<path class="st2" d="M176,267.3c22-42.2,64-72.1,82-106.9c13.2-25.5,23.1-62.9,51.7-64.3l98.1-4.9c33.5-1.7,64.5,17.6,77.9,48.3
	l54,124c18.4,42.2-2.2,91.1-45.2,107.5L457,385.3c-5.6,2.1-11.5,3.6-17.4,4.5L329,405.2c-3.7,0.5-7.4,0.8-11.2,0.8h-22.5
	c-11.1,0-22.2-2.3-32.4-6.8l-47.9-21C172.5,359.5,154.5,308.6,176,267.3z"/>
<path class="st3" d="M291.2,362.3l80,102.5c0,0,17.5,10,25,5c7.5-5,30-22.5,40-55c10-32.5,15-45,22.5-57.5
	c7.5-12.5,17.5-155,5-172.5s-167.5,10-167.5,10L291.2,362.3z"/>
<circle class="st2" cx="340.7" cy="237.8" r="12.9"/>
<circle class="st2" cx="433.2" cy="235.7" r="12.9"/>
<path class="st4" d="M680.7,619H59.3c-5.2,0-9.3-4.2-9.3-9.3V268.3c0-5.2,4.2-9.3,9.3-9.3h621.3c5.2,0,9.3,4.2,9.3,9.3v341.3
	C690,614.8,685.8,619,680.7,619z"/>
</svg>
