<?xml version="1.0" encoding="utf-8"?>
<!-- Generator: Adobe Illustrator 21.1.0, SVG Export Plug-In . SVG Version: 6.00 Build 0)  -->
<svg version="1.1" id="Layer_3" xmlns="http://www.w3.org/2000/svg" xmlns:xlink="http://www.w3.org/1999/xlink" x="0px" y="0px"
	 viewBox="0 0 1920 1080" style="enable-background:new 0 0 1920 1080;" xml:space="preserve">
<style type="text/css">
	.st0{fill:#0B23FF;}
	.st1{fill:none;stroke:#E50707;stroke-width:3;stroke-miterlimit:10;}
	.st2{fill:#FFD1FF;}
	.st3{fill:#EEFF0D;}
	.st4{fill:#F9602F;}
	.st5{fill:none;stroke:#2EEAEF;stroke-miterlimit:10;}
	.st6{fill:#11BC11;}
	.st7{fill:#265DBA;}
	.st8{opacity:0.47;fill:#7097C4;}
	.st9{fill:#2C2F2E;}
	.st10{fill:#CECDCB;}
</style>
<image style="overflow:visible;" width="1478" height="2148" xlink:href="wireframe-sketch.jpg"  transform="matrix(0.24 0 0 0.24 1303 135)">
</image>
<image style="overflow:visible;" width="1478" height="2148" xlink:href="wireframe-02-sketch.jpg"  transform="matrix(0.1164 0 0 0.1164 377 132)">
</image>
<g id="simplified_-_shapes">
	<rect x="101.9" y="144.5" class="st0" width="5" height="211"/>
	<path class="st1" d="M132.9,345.5c7-9,3-51,25-73s55,1,66-24s-17-36,6-57s36,10,47-8"/>
	<circle class="st2" cx="136.9" cy="182.5" r="11"/>
	<circle class="st3" cx="216.9" cy="173.5" r="5"/>
	<path class="st4" d="M311.8,169.5c0.1-0.7,0.1-1.3,0.1-2c0-12.7-10.3-23-23-23c-12.7,0-23,10.3-23,23c0,0.7,0,1.3,0.1,2H311.8z"/>
	<polyline class="st5" points="158.9,357.5 318.9,357.5 319.9,218.5 	"/>
	<polygon class="st6" points="266.9,274.4 267.8,337.4 299.7,335.5 	"/>
</g>
<g id="simplified_face">
	<rect x="390.3" y="422.5" class="st0" width="6.1" height="259"/>
	<path class="st1" d="M360.9,634.9c8.6-11,3.7-62.6,30.7-89.6c27-27,67.5,1.2,81-29.5s-20.9-44.2,7.4-70s44.2,12.3,57.7-9.8"/>
	<circle class="st2" cx="446.8" cy="499.8" r="13.5"/>
	<circle class="st3" cx="538.8" cy="493.7" r="6.1"/>
	<path class="st4" d="M472.7,590.7c-0.1,0.9-0.1,1.6-0.1,2.5c0,15.6,12.6,28.2,28.2,28.2c15.6,0,28.2-12.6,28.2-28.2
		c0-0.9,0-1.6-0.1-2.5H472.7z"/>
	<polygon class="st6" points="502.9,491.2 499.7,568.6 539,568.3 	"/>
	<polyline class="st5" points="381.7,655.7 578.1,655.7 579.4,485.1 	"/>
</g>
<g id="simplified_face-2">
	<rect x="1747.4" y="130.5" class="st0" width="6.2" height="261"/>
	<path class="st1" d="M1751.5,131.5c9.3,10.6,61.2,15.7,82.8,47.6c21.5,31.9-17.4,61.4,10.4,80.7s43.3,16.1,47,32.2
		c8.7,37.5-28,38.1-8.7,55.7"/>
	<circle class="st2" cx="1731.3" cy="204.7" r="13.6"/>
	<circle class="st3" cx="1798.1" cy="207.2" r="6.2"/>
	<path class="st4" d="M1731.5,303.7c-0.1,0.9-0.1,1.6-0.1,2.5c0,15.7,12.7,28.5,28.5,28.5s28.5-12.7,28.5-28.5c0-0.9,0-1.6-0.1-2.5
		H1731.5z"/>
	<polygon class="st6" points="1753.5,207.6 1752.4,285.6 1791.8,284.4 	"/>
	<polyline class="st5" points="1712.8,149.1 1712.8,347 1884.7,348.2 	"/>
</g>
<image style="overflow:visible;" width="1430" height="1426" xlink:href="ideation-sketch.png"  transform="matrix(0.2309 0 0 0.2309 43 375)">
</image>
<image style="overflow:visible;" width="1430" height="1426" xlink:href="logo-sketch.jpg"  transform="matrix(0.1776 0 0 0.1776 1637 402)">
</image>
<path class="st7" d="M740.6,1063.8H662c-4.4,0-8-3.6-8-8V1033c0-4.4,3.6-8,8-8h78.6c4.4,0,8,3.6,8,8v22.8
	C748.6,1060.2,745,1063.8,740.6,1063.8z"/>
<path class="st7" d="M1255,1059h-78.6c-4.4,0-8-3.6-8-8v-22.8c0-4.4,3.6-8,8-8h78.6c4.4,0,8,3.6,8,8v22.8
	C1263,1055.4,1259.4,1059,1255,1059z"/>
<path class="st8" d="M1126.4,857.6H797.9c-4.4,0-8-3.6-8-8v-90.8c0-4.4,3.6-8,8-8h328.5c4.4,0,8,3.6,8,8v90.8
	C1134.4,854,1130.8,857.6,1126.4,857.6z"/>
<path class="st8" d="M1126.4,971.6H797.9c-4.4,0-8-3.6-8-8v-90.8c0-4.4,3.6-8,8-8h328.5c4.4,0,8,3.6,8,8v90.8
	C1134.4,968,1130.8,971.6,1126.4,971.6z"/>
<path class="st8" d="M1124,1085.7H795.4c-4.4,0-8-3.6-8-8v-90.8c0-4.4,3.6-8,8-8H1124c4.4,0,8,3.6,8,8v90.8
	C1132,1082.1,1128.4,1085.7,1124,1085.7z"/>
<path class="st9" d="M766,728.3c22-42.2,64-72.1,82-106.9c13.2-25.5,23.1-62.9,51.7-64.3l98.1-4.9c33.5-1.7,64.5,17.6,77.9,48.3
	l54,124c18.4,42.2-2.2,91.1-45.2,107.5l-37.6,14.3c-5.6,2.1-11.5,3.6-17.4,4.5L919,866.2c-3.7,0.5-7.4,0.8-11.2,0.8h-22.5
	c-11.1,0-22.2-2.3-32.4-6.8l-47.9-21C762.5,820.5,744.5,769.6,766,728.3z"/>
<path class="st10" d="M881.2,823.3l80,102.5c0,0,17.5,10,25,5s30-22.5,40-55s15-45,22.5-57.5c7.5-12.5,17.5-155,5-172.5
	s-167.5,10-167.5,10L881.2,823.3z"/>
<circle class="st9" cx="930.7" cy="698.8" r="12.9"/>
<circle class="st9" cx="1023.2" cy="696.7" r="12.9"/>
<path class="st2" d="M1270.7,1080H649.3c-5.2,0-9.3-4.2-9.3-9.3V729.3c0-5.2,4.2-9.3,9.3-9.3h621.3c5.2,0,9.3,4.2,9.3,9.3v341.3
	C1280,1075.8,1275.8,1080,1270.7,1080z"/>
</svg>
