<?xml version="1.0" encoding="utf-8"?>
<!-- Generator: Adobe Illustrator 21.1.0, SVG Export Plug-In . SVG Version: 6.00 Build 0)  -->
<svg version="1.1" xmlns="http://www.w3.org/2000/svg" xmlns:xlink="http://www.w3.org/1999/xlink" x="0px" y="0px"
	 viewBox="0 0 250 250" style="enable-background:new 0 0 250 250;" xml:space="preserve">
<style type="text/css">
	.st0{display:none;}
	.st1{display:inline;fill:#5CAFEB;}
	.st2{display:inline;fill:#D8D3D2;}
	.st3{display:inline;fill:#050505;}
	.st4{display:inline;fill:#FDF000;}
	.st5{display:inline;fill:#9BE1B3;}
	.st6{display:inline;fill:#C67BE5;}
	.st7{display:inline;fill:#FDE910;}
	.st8{display:inline;fill:#9A9EEA;}
	.st9{display:inline;fill:#C2DBD5;}
	.st10{display:inline;fill:none;stroke:#891153;stroke-miterlimit:10;}
	.st11{display:inline;fill:#675253;}
	.st12{display:inline;fill:#E50707;}
	.st13{display:inline;fill:#F9FAFC;stroke:#000000;stroke-width:0.25;stroke-miterlimit:10;}
	.st14{display:inline;fill:#A4E1C2;}
	.st15{display:inline;fill:#5F6AC7;}
	.st16{display:inline;fill:#1A6E59;}
	.st17{display:inline;fill:#DFFFC3;stroke:#000000;stroke-width:0.5;stroke-miterlimit:10;}
	.st18{display:inline;fill:#E598DA;}
	.st19{display:inline;fill:#F9602F;}
	.st20{display:inline;fill:#FDFFFD;stroke:#1C1918;stroke-width:0.25;stroke-miterlimit:10;}
	.st21{display:inline;fill:#FCD0FF;}
	.st22{display:inline;fill:#FDF204;}
	.st23{display:inline;fill:#1B2161;}
	.st24{display:inline;fill:#472414;}
	.st25{display:inline;fill:#8EB9F3;}
	.st26{display:inline;fill:#16120A;}
	.st27{display:inline;fill:#F4BDF9;}
	.st28{display:inline;fill:#E01244;stroke:#000000;stroke-width:0.25;stroke-miterlimit:10;}
	.st29{display:inline;fill:#BDE3F4;stroke:#000000;stroke-width:0.25;stroke-miterlimit:10;}
	.st30{display:inline;fill:#151B13;}
	.st31{display:inline;}
	.st32{fill:#EDFFF2;}
	.st33{display:inline;fill:none;stroke:#16120A;stroke-width:0.25;stroke-miterlimit:10;}
	.st34{display:inline;fill:#11BC11;}
	.st35{display:inline;fill:#7CF7C8;}
	.st36{display:inline;fill:#FF96E5;}
	.st37{display:inline;fill:#AC97FA;}
	.st38{display:inline;fill:#5E6354;}
	.st39{display:inline;fill:none;stroke:#232323;stroke-miterlimit:10;}
	.st40{display:inline;fill:#1AB1E5;}
	.st41{display:inline;fill:#196A5A;}
	.st42{display:inline;fill:#F9602F;stroke:#2B2826;stroke-width:0.75;stroke-miterlimit:10;}
	.st43{fill:none;}
	.st44{fill-rule:evenodd;clip-rule:evenodd;fill:#231F20;}
	.st45{display:inline;fill:#EEFF0D;}
	.st46{display:inline;fill:#9FEBBB;}
	.st47{display:inline;opacity:0.5;fill:#FFD1FF;}
	.st48{display:inline;fill:#CCD9ED;}
	.st49{fill:#F9602F;}
	.st50{fill:#2B2826;}
	.st51{display:inline;fill:#0B23FF;}
	.st52{display:inline;fill:none;stroke:#E50707;stroke-width:3;stroke-miterlimit:10;}
	.st53{display:inline;fill:#FFD1FF;}
	.st54{display:inline;fill:none;stroke:#2EEAEF;stroke-miterlimit:10;}
	.st55{fill:#0B23FF;}
	.st56{fill:none;stroke:#E50707;stroke-width:3;stroke-miterlimit:10;}
	.st57{fill:#FFD1FF;}
	.st58{fill:#EEFF0D;}
	.st59{fill:#11BC11;}
	.st60{fill:none;stroke:#2EEAEF;stroke-miterlimit:10;}
</style>
<g id="Layer_1" class="st0">
	<path class="st1" d="M160.7,45.9c0.8-3.1,1.4-8.1,0.5-12.1c-1-4.2-5.8-5.4-10.5-7.3c-4.8-1.9-8.1-5.8-8.1-5.8s-11.9-0.4-11.9-1.1
		s4.2-3.6,9.1-4.2c5-0.6,9.1-0.7,12.2,0.3c3,1.1,8.2,1.3,9.8,1.3c1.5,0,3.6,4.6,5.6,7c2,2.3-2.2,4.2,1.7,8.1c3.9,3.9-1,5.8-1,9
		s2.1,3.8,1.7,9.5s-11.1,11.6-13.5,15L160.7,45.9z"/>
	<path class="st2" d="M146.9,64.6c-1.8-1.7-4.8-3.6-7.7-4c-2.9-0.5-12.9,9.2-13.5,12.9c0,0-8.7-6.3-8.6-6c0,0,11.3-15.2,9.6-21.3
		c-1.6-6-8-17.9-0.4-21.1s16.5-4.4,16.5-4.4l16.9,6.5c2.3,0.9,3.8,2.9,4.1,5.3l0.4,13.3c0,0.3,0,0.6-0.1,0.8L157.9,63
		c0.4,1.2-0.3,5.1-4.6,4.9C153.3,68,148.6,66.1,146.9,64.6z"/>
	<path class="st3" d="M55.3,95.5c0.3-1.8,0.3-3.5,0.2-4.7c0-4.7-0.9-5.8,0-7.4c1.3-2.2,3.7-1.1,5.2-3.2c2-2.9-1-6.9,1-8.9
		c0.8-0.8,1.7-0.7,3.7-0.7c3.7-0.1,10.3-0.4,14.8-3.5c2.6-1.8,3.1-3.5,5.2-3.5c2.3,0.1,3.5,2.3,4.7,1.7c1.2-0.6,0.1-3.2,1.2-4.7
		c2.1-2.7,9.9,1.1,19.7,3.7c12.7,3.3,10.1,3.6,17.2,6.7c10.5,4.4,17.3,9.1,21.7,7.1c2.3-1.1,1.8-3.6,4.9-4.9c3.4-1.5,5.5,1,9.6-0.2
		c3.1-0.9,3.4-2.7,5.9-3.9c4.8-2.3,12-1.1,14.1,2.5c1.3,2.3-0.5,3.8-1.7,10.8c-1.2,6.4-0.9,11.7-0.7,14.3c0.5,9.3,2.7,9.5,1.5,13.8
		c-1.3,4.5-4.3,6.2-4.4,11.6c-0.1,2.1,0.4,1.9,0.5,4.7c0.2,6-2,7.4-2,11.6c0.1,5.7,4.2,6.1,3.9,10.8c-0.3,5.7-6.4,6.7-6.4,11.8
		c0,5.3,6.5,6.6,6.2,11.8c-0.2,3.2-2.6,3.2-5.9,10.4c-1.9,4-1.5,4.8-3,6.2c-2.7,2.4-5.6,1.2-11.3,2c-7.1,1-7.6,3.7-12.6,4.2
		c-7,0.7-8.5-4.1-16.5-6.4c-14.3-4.1-20.4,8.3-33.5,3.5c-4.8-1.8-9.4-5.4-14.3-3.5c-2.4,0.9-4.1,2.8-6.4,2.2
		c-2.3-0.6-2.1-2.9-4.4-4.2c-3.8-2.2-7.5,1.9-10.4,0c-1.9-1.2-0.9-3.4-2.7-10.4c-0.9-3.4-1.1-2.8-3-8.9c-2.5-8-2.4-9.9-2-11.3
		c0.9-3.3,2.6-3.2,2.7-5.7c0.2-4.2-4.7-5.9-4.2-9.6c0.3-2.4,2.3-2,3.5-4.7c2.2-5.2-4.4-9.3-3-16.5c0.6-2.8,1.7-2.8,1.7-5.2
		c0-4.7-4.6-5.7-4.7-9.9C51.3,101.6,54.4,101.2,55.3,95.5z"/>
	<path class="st4" d="M132.1,108.9c3-1.7,1.3-9.8,2.5-10c1.1-0.2,1.9,5.8,5.4,6.7c2.3,0.6,4.4-1.2,4.8-0.6c0.4,0.7-2.8,2.4-3.9,5.7
		c-1.5,4.5,2.1,9.1,1.3,9.6c-0.9,0.6-4.6-6.5-8.5-6c-3.1,0.4-5,5.4-5.4,5.2c-0.3-0.2,2.7-3.8,1.8-7.2c-0.9-3.2-5.1-4.8-4.9-5.1
		C125.4,106.9,129.7,110.2,132.1,108.9z"/>
	<path class="st5" d="M108.9,110.8c0.4,2.3-8.6,7.7-12.4,5.1c-4.5-3.1-1.3-16.5,2.5-17.2c2.1-0.4,5,2.7,4.6,4.6
		c-0.4,2-4.1,2.2-4,3.4C99.7,108.6,108.5,108.7,108.9,110.8z"/>
	<path class="st6" d="M127.7,83.9c1.5-4.1,7.7-6.9,12.1-4.3c5.1,3,4,11.1,2.8,11.5c-1,0.3-3.4-4.8-4.3-4.3c-0.8,0.4,0.4,4.5-0.4,4.8
		c-0.9,0.3-2.6-4-4.3-3.7c-1.8,0.2-1.8,4.7-3.1,4.8C129,92.7,126.3,87.8,127.7,83.9z"/>
	<path class="st7" d="M138.7,142.7l0.6,6.4c0,0,14.5,3.4,13.6-0.7s-1.3-7.3-1.3-7.3L138.7,142.7z"/>
	<path class="st8" d="M140.6,150.8c0,0-1.2,9,0.1,10.2c1.3,1.2,2.7,3.7,5.5,3.4c2.8-0.3,5.5-0.9,5.5-5.7s-0.1-9.4-0.1-9.4
		L140.6,150.8z"/>
	<ellipse class="st9" cx="70.8" cy="85.5" rx="8.6" ry="7.4"/>
	<polyline class="st10" points="102.6,130.9 100.4,126.8 93.5,128.9 94.8,136 	"/>
	<ellipse class="st11" cx="94.8" cy="137.8" rx="2.7" ry="2.3"/>
	<ellipse class="st12" cx="102.9" cy="131.3" rx="2.8" ry="1.5"/>
	<path class="st13" d="M73.3,172.1c0,0,3,11.5,2.4,14.1c-0.6,2.5-1.9,7.6-4.8,6.9c-2.8-0.7-3.7-6.9-1.8-11.1
		C71.1,177.8,73.3,172.1,73.3,172.1z"/>
	<path class="st14" d="M122.7,176.3c0,0-0.3,6.1,1.6,6.6c1.9,0.4,8.7,2.4,9-2.1c0.3-4.5,0-7.6,0-7.6L122.7,176.3z"/>
	<path class="st15" d="M166.2,178.1c0,0-3.6,14.2-0.6,15.8s3.6,1.9,5.1,1.9c1.5,0,3.6-1.5,1.3-9.3S166.2,178.1,166.2,178.1z"/>
	<path class="st16" d="M94.2,150.3c0,0,0.1,10.9,3.3,11.4s12.3-2.4,12.3-2.4l-2.1-12.9L94.2,150.3z"/>
	<path class="st17" d="M159.1,125.3l3.7,10.8c0,0,4.6-5.2,8.1-4.9c3.4,0.3,5.4,3.4,9.7,2.5c4.3-0.9,2.2-7.6,6-7.9s5.5-0.3,5.5-0.3
		l-3.4-12.6c0,0-5.5-0.4-7.6,2.1c-2.1,2.5-3.1,6-7.2,6c-4,0-2.5-4.3-8.8-1S159.1,125.3,159.1,125.3z"/>
	<path class="st18" d="M75.7,114.3l10.2-14.1c0,0-7.2-4-8.8-2.2c-1.6,1.8-7.3,17-7.3,17L75.7,114.3z"/>
	<path class="st19" d="M175.9,90.2c0,0,1,6.7,2.8,6.7c1.8,0,12-1.9,12-1.9l-0.7-7.9L175.9,90.2z"/>
	<path class="st15" d="M191.4,94.8l-1.1-7.4c0,0,3.8,0.1,5.5-0.6c1.7-0.7,3.7-1.8,4.4-1c0.7,0.7-2.9,2.4-2.9,2.4v1
		c0,0,5.2-1.3,5.4,0.4c0.2,1.7-5.3,2.6-5.3,2.6s-0.5,0.9,0.4,0.9c0.9,0,4.8-1.2,4.8,0c0,1.2-4.4,1.6-4.4,1.6s5.8,0.5,4.7,1.6
		s-6.4-0.3-6.4,0.1c0,0.4,2.8,3.4,1.7,3.5c-1.1,0.1-3.6-0.7-4.9-2.3C192.1,95.8,191.4,94.8,191.4,94.8z"/>
	<path class="st20" d="M69,116.1c0,0,0.7,7-0.2,10.1c-0.9,3.1-2.5,6.8-1.4,7.5s3.1-5.8,3.4-7c0.4-1.1,1.1-1.8,1.3-1
		c0.1,0.7-1.3,7.8-0.6,8.3c0.7,0.5,1.9-1.6,2.1-5.5c0.1-3.9,0.7-3.6,1-3.1s0.9,5.2,1.6,5.8c0.7,0.5,1.9,0.1,1.9-0.8
		c-0.1-1-2.3-3.4-1.6-5.1c0.7-1.7,3.1,4,3.7,4c0.6,0,1.3-2.6-1-4.9s-3.7-3.7-2.5-3.7c1.2-0.1,3.3,2.4,3.2,0.7
		c-0.1-1.7-4.2-6.9-4.2-6.9L69,116.1z"/>
	<path class="st21" d="M88.2,90.2c0,0,1.6,5.8,2.5,5.8s3.6-0.3,3.6-1.7c0-1.4-1.3-4.2-1.6-5.2C92.3,88,88.2,90.2,88.2,90.2z"/>
	<path class="st22" d="M91.3,88c0,0,1.1-0.9,1.1-3.7c0-2.8-2.4-4.8-4.9-3.6c-2.5,1.2-4.3,2.5-3.3,4.9s3.7,5.2,4.9,4.4
		C90.5,89.2,91.3,88,91.3,88z"/>
	<path class="st23" d="M160.5,21.1c0.4,0.1,0.7,0.4,0.9,0.7c0.9,1.3,2.6,4.9-1.4,7c-4.9,2.6-17.8,1.9-21.6,6.6
		c-3.8,4.7,6.4,11.7,4.5,15.8s-7.2,4.1-7.2,6.9s1.1,4.8,1.1,4.8s-26.1-2.6-27.5-15.6s5.6-17.1,10.8-19.6s9.3-8.5,11.4-8.6
		c2.1-0.1,3.7-0.3,4.5-1.3c0.8-1,18.1,0.2,19.4,0.6C158.3,19.6,159.2,20.6,160.5,21.1z"/>
	<path class="st24" d="M151.7,35.9c0,0-3.2,1-5.6,1.6c-2.4,0.6-3.7,2.8-3.7,4.5c0,1.7-3.7-4.2,0.6-5.7S151.7,34.2,151.7,35.9z"/>
	<polygon class="st25" points="120.4,78.3 113.2,73.3 112.2,82 	"/>
	<path class="st26" d="M157.2,35.6c0.4,0.7,0.8,1.6,2.7,1.9c1.9,0.4,2.8-0.9,4.7-0.2c1.9,0.7,3.4,2.4,3.6,2c0.2-0.5-1.3-3.1-3.4-3.5
		C162.7,35.4,157.2,35.6,157.2,35.6z"/>
	<ellipse class="st1" cx="151.8" cy="98.4" rx="2.2" ry="2"/>
	<path class="st27" d="M149.3,51.3c-1.2,0.2,0,4.6,1.6,3.3C152.5,53.4,152.3,50.6,149.3,51.3z"/>
	<path class="st28" d="M155.5,57.4c0,0,0.1,3.7,2.5,3.1c2.4-0.6,2.6-3.4,2.6-3.4L155.5,57.4z"/>
	<path class="st29" d="M133.2,41.7l0.4,8.3c0,0-5.6-0.1-5.4-3.6S133.2,41.7,133.2,41.7z"/>
	<path class="st26" d="M178.4,160.7c-0.1,3.2,1.6,5.8,3.3,5.5c1.7-0.3,14.4-12.2,14.5-9.3c0.1,2.9-8.6,19.5-7.5,21.8
		c1.1,2.2,1.8,4.1,6.8,3.9s6.5-3.3,5.3-4.3s-6.4-0.4-6.4-0.4s3.1-9.1,5.8-14.7c2.7-5.6,4-10.9,1.9-12.2
		C199.9,149.6,178.6,155.2,178.4,160.7z"/>
	<path class="st30" d="M108.7,182.5c0,0-39.3,26.2-39.8,31.1c-0.6,4.8,0.4,9,1.9,9.6c1.5,0.7,3.7,3,2.5,4.5s-11.3,3.3-10.7-4.4
		c0.7-7.6-1.8-12.9,3.5-16.6c5.3-3.7,28.5-20.2,28.5-20.2L108.7,182.5z"/>
	<g class="st31">
		<path class="st32" d="M157.4,53.9c1.1-0.3,5.3-3.3,5.3-3.3l-6.3-5.8l-1.3-4.9l-2.4-0.3L157.4,53.9z"/>
		<g>
			<path d="M157.4,53.9c0.5-0.2,0.9-0.4,1.4-0.7c0.4-0.3,0.9-0.6,1.3-0.8c0.9-0.6,1.7-1.2,2.6-1.8l0,0.1l-6.3-5.8l0,0l0,0l-1.3-4.9
				l0.1,0.1l-2.4-0.3l0.1-0.1C154.4,44.3,155.9,49,157.4,53.9z M157.4,53.9c-1.6-4.7-3.2-9.5-4.8-14.2l-0.1-0.2l0.2,0l2.4,0.3l0.1,0
				l0,0.1l1.3,4.9l0-0.1l6.3,5.9l0.1,0.1l-0.1,0c-0.9,0.6-1.7,1.2-2.6,1.7c-0.4,0.3-0.9,0.5-1.3,0.8
				C158.4,53.4,157.9,53.7,157.4,53.9z"/>
		</g>
	</g>
	<path class="st33" d="M151.1,122.3c0.2,0.6,0,1.3,0,2c0,0.7,0.2,1.5,0.8,1.7"/>
	<ellipse class="st26" cx="161.4" cy="41.3" rx="0.4" ry="0.4"/>
	<path class="st33" d="M118.4,86.9c0,1.9,0,3.8,0.7,5.6c0.4,0.9,0.9,1.8,1.4,2.7c1.2,2.4,1.9,5.5,0.3,7.6"/>
	<path class="st33" d="M121,148.3c-1-0.3-1.8-1-2.2-2c-0.4-0.9-0.1-2.1,0.7-2.8c0.4-0.3,0.8-0.5,1.3-0.7c1.3-0.6,2.4-1.9,2.9-3.3"/>
	<path class="st33" d="M78.4,143.9c-0.1,0.9-0.1,1.9,0.1,2.8c0.2,0.9,0.8,1.8,1.7,2.1c0.3,0.1,0.7,0.2,1.1,0.3
		c0.8,0.4,1.3,1.2,1.4,2.1s0,1.8-0.2,2.6"/>
	<path class="st33" d="M165.2,78.4c0.6,1.7,1.5,3.2,2.5,4.7"/>
	<path class="st33" d="M160.5,173c0.3,0.3,0.7-0.1,0.8-0.5c0.4-1.1,0.6-2.2,0.6-3.4c-0.1-1.1-0.3-2.3,0.3-3.2c0.6-0.9,1.7-1,2.7-1.5
		c0.9-0.5,1.7-1.7,1-2.5"/>
	<path class="st33" d="M95,167.9c0.1,1.1,1.1,2,2.2,2.3c1.1,0.3,2.2,0.2,3.4,0.1c0.2,0,0.4,0,0.6-0.1c0.2-0.1,0.4-0.4,0.6-0.6
		c0.8-1.1,2.2-1.6,3.5-1.9c1.6-0.4,3.4-0.5,5,0c1.6,0.5,3.1,1.7,3.7,3.2"/>
	<path class="st33" d="M74.4,166.8c-1.7-1.4-4-2.1-6.2-1.9c-1.2,0.1-2.5,0.4-3.4-0.4c-0.5-0.4-0.8-1.2-0.9-1.8
		c-0.5-1.7-0.9-3.9,0.5-5c0.2-0.1,0.4-0.3,0.5-0.5c0.1-0.1,0.1-0.2,0.1-0.3c0.1-1-0.9-1.8-1.5-2.7c-0.6-1-0.6-2.3-0.6-3.5
		c0-0.8,0-1.7,0.5-2.4c0.6-0.9,1.8-1.3,2.9-1.3"/>
	<path class="st33" d="M164.1,99.2c0,1,0,2.1,0,3.1c0,0.3,0,0.5,0.2,0.7c0.2,0.3,0.6,0.4,1,0.4c1.4,0.1,3,0.1,3.9-1
		c0.3,0.5,0.6,1,0.8,1.6c0.4,0.7,0.8,1.4,1.4,1.9c0.6,0.5,1.5,0.6,2.2,0.2c0.4-0.3,0.6-0.8,0.8-1.2c0.5-1.1,0.9-2.2,1.4-3.3"/>
	<path class="st33" d="M155.3,189.6c0.9,0,1.8,0,2.7,0c0-1.3,0.1-2.8,1-3.7c0.4-0.4,1-0.6,1.5-0.9c1.4-0.9,2.5-2.7,1.9-4.3"/>
	<path class="st33" d="M83.7,74c1.3-1.3,3.3-1.8,5.1-1.3c0.1,0,0.2,0.1,0.3,0.2c0.1,0.1,0,0.2,0,0.4c-0.1,0.7,0.5,1.2,1.2,1.4
		c0.6,0.2,1.3,0,2-0.1c1.4-0.2,2.9-0.3,4.3-0.3c1.2,0,2.6,0.3,3.3,1.3c0.3,0.4,0.4,1,0.4,1.5c0.4,2.7,0.2,5.6-0.5,8.2"/>
	<ellipse class="st26" cx="149" cy="44.4" rx="0.4" ry="0.4"/>
	<path class="st34" d="M151.9,48.2l-4.9-0.1c0,0,0.3-3.3,2.4-3C151.4,45.4,151.9,48.2,151.9,48.2z"/>
	<path class="st34" d="M164.5,45.1l-4.9,0.2c0,0,0.1-3.3,2.1-3.2C163.8,42.4,164.5,45.1,164.5,45.1z"/>
</g>
<g id="Layer_2" class="st0">
	<polygon class="st31" points="163.9,47.6 173.5,44.6 173.1,179.8 118.5,190.5 118.8,61.9 	"/>
	<path class="st35" d="M170.4,44.8c0,0-0.2,123.9-1.1,124.7c-0.8,0.8-56.6,13-56.6,13l-2.9-0.9c0,0,5.2-123.4,6-123.5
		c0.8-0.2,48.1-15.3,49.9-15.2C167.6,43,170.4,44.8,170.4,44.8z"/>
	<path class="st8" d="M127,157.6c0,0,2.5,6.8,1.7,8c-0.7,1.2-1.2,3.4-3.2,3.6c-2,0.2-4,0.2-4.9-3.6s-1.6-7.4-1.6-7.4L127,157.6z"/>
	<polygon class="st36" points="165.8,167.9 169.3,169.5 170.4,44.8 166.4,43.1 	"/>
	<polygon class="st37" points="112.6,182.5 109.8,181.6 165.8,167.9 169.3,169.5 	"/>
	<path class="st38" d="M133.7,113.7c2.7-1,7.2-1.7,10.7-0.2c3.7,1.5,4.9,8.4,6.7,15.2c1.8,6.9,5.3,11.8,5.3,11.8s0.6,16.9,1.2,16.9
		s3.1-5.8,3.6-12.8s0.5-13-0.5-17.3c-1-4.4-1.4-11.8-1.4-13.9s-4.2-5.3-6.3-8.2s-3.7,2.9-7.2-2.7c-3.5-5.6-5.2,1.2-8,1.1
		c-2.8-0.1-3.4-3.2-8.5-2.8c-5,0.4-10.1,15.3-13,18.7L133.7,113.7z"/>
	<path class="st39" d="M154.6,99c-0.7-0.8-1.4-1.6-2.1-2.5c-1-1.2-2-2.3-3-3.5c-2-2.4-4.1-4.8-6.1-7.2"/>
	<path class="st39" d="M146.9,71c-1.5-0.4-3.2-0.3-4.6,0.2c-0.5,0.2-1.1,0.5-1.3,1.1c-0.2,0.4-0.1,1,0,1.4c0.2,1.2,0.5,2.4,0.8,3.6"
		/>
	<path class="st39" d="M139.1,65.1c-0.3-1.3-1.5-2.2-2.7-2.5s-2.4-0.1-3.6,0.2c-0.3,0.1-0.6,0.1-0.9,0.4c-0.2,0.2-0.3,0.4-0.4,0.7
		c-0.4,1.3-0.5,2.7-0.3,4"/>
	<path class="st39" d="M156.8,131.7c-1.4,3.5-3.9,6.8-3.6,10.7c0.4,4.1,3.9,7.5,4,11.7"/>
	<path class="st39" d="M119.8,142.2c-0.3-4.2-0.5-8.5-0.8-12.7c-0.1-1.1-0.1-2.2-0.1-3.3c0-3.7,0.9-7.3,0.2-10.9"/>
	<path class="st39" d="M136.5,160.3c-0.1-5.1-0.1-10.1,0.2-15.2c0.1-1.7,0.2-3.3,0.1-5c-0.1-2.5-0.7-4.9-0.9-7.4
		c-0.2-2.8,0.1-5.6,0.4-8.4"/>
	<path class="st40" d="M135.7,102.1c-0.5,2.8,1.1,9.7-0.3,10.1c-1.4,0.3-8.3,1.2-8.3-0.3s0.7-10.1,0.7-10.1L135.7,102.1z"/>
	<ellipse transform="matrix(0.9741 -0.2262 0.2262 0.9741 -23.509 38.928)" class="st41" cx="158.1" cy="122.1" rx="3.9" ry="3.4"/>
	<path class="st6" d="M153.8,68.8c-4.1-6.7-14.9-9.4-20.7-3.2c-6.7,7.1-1.7,21,0.3,21.2c1.7,0.2,3.3-9.6,5-9.2
		c1.5,0.3,1.2,8,2.7,8.2c1.5,0.3,2.4-7.9,5.2-8.1c2.9-0.2,4.8,7.6,6.9,7.3C155.4,84.7,157.7,75.1,153.8,68.8z"/>
	<path class="st17" d="M138,84.5l-0.6,9c0,0-4.2-3.4-6.5-2.6c-2.3,0.8-3.1,3.6-6.3,3.6c-3.2,0-3-5.6-5.6-5.2s-3.9,0.7-3.9,0.7
		l0.1-10.4c0,0,3.8-1.2,5.7,0.4c1.9,1.7,3.3,4.2,6.1,3.5s1-3.8,6-2.2C137.8,82.8,138,84.5,138,84.5z"/>
	<path class="st7" d="M126.8,151l0.8,5.1c0,0-9.5,5-9.6,1.6c-0.1-3.4-0.4-6-0.4-6L126.8,151z"/>
	<path class="st42" d="M150.2,138.2c0,0,0.5,5.4-0.8,5.7s-8.7,0.4-8.7,0.4l-0.9-6.3L150.2,138.2z"/>
	<path class="st22" d="M134.5,72.4c0,0-0.9-0.5-1.5-2.7c-0.5-2.2,0.8-4.1,2.7-3.6c1.9,0.5,3.5,1.3,3.2,3.3c-0.3,2-1.6,4.6-2.6,4.3
		C135.3,73.3,134.5,72.4,134.5,72.4z"/>
	<path class="st29" d="M124.1,134.7l1.2,6.6c0,0,3.9-1,3.1-3.7C127.6,134.9,124.1,134.7,124.1,134.7z"/>
	<path class="st39" d="M163.2,94.7c-1.8-2.5-3.7-5-6.1-6.8c-0.9-0.7-1.8-1.2-2.6-1.9c-0.9-0.7-1.7-1.6-2.5-2.5
		c-2.2-2.4-4.3-4.7-6.5-7.1"/>
	<path class="st39" d="M151.8,76.2c-0.9,0.9-1.7,1.7-2.6,2.6c-0.7,0.7-1.4,1.4-2.1,2.2c-0.5,0.6-0.9,1.2-1.3,1.8
		c-0.1,0.2-0.3,0.4-0.4,0.7c-0.1,0.4-0.2,1-0.6,1.1"/>
	<path class="st39" d="M156.3,81.5c-0.2,1.2-1,2.1-1.7,2.9c-0.7,0.9-1.5,1.8-2.2,2.7c-0.5,0.7-1.1,1.4-1.4,2.2
		c-0.3,0.9-0.3,2-1.1,2.3c0.2,0.4,0.1,0.8-0.1,1.1"/>
	<g class="st31">
		<g>
			<g>
				<g>
					<g>
						<g>
							<path class="st43" d="M139.5,43.1c-0.2-1.3-0.2-2.8,0.1-4.5l-7.4-1.1c-0.3,2.1-0.5,4.4,0,6.8L139.5,43.1z"/>
						</g>
						<path class="st44" d="M135.4,39.6l0.7,0.1c0-0.3,0.1-0.7,0.1-1l-0.7-0.1C135.5,38.9,135.4,39.2,135.4,39.6z"/>
						<path class="st44" d="M135.3,41.5l0.7,0c0-0.3,0-0.7,0-1l-0.7,0C135.3,40.8,135.3,41.1,135.3,41.5z"/>
						<path class="st44" d="M135.5,43.4l0.7-0.1c-0.1-0.3-0.1-0.7-0.1-1l-0.7,0C135.4,42.7,135.4,43.1,135.5,43.4z"/>
					</g>
				</g>
				<g>
					<g>
						<g>
							<path class="st43" d="M139.6,38.7c0.2-1.6,0.7-3.4,1.1-5.2l-7.3-1.8c-0.5,1.8-0.9,3.8-1.3,5.9L139.6,38.7z"/>
						</g>
						<polygon class="st44" points="136.4,34 137.2,34.1 137.4,33.1 136.7,32.9 						"/>
						<polygon class="st44" points="136,35.8 136.7,36 137,35 136.2,34.8 						"/>
						<polygon class="st44" points="135.7,37.7 136.4,37.8 136.6,36.8 135.9,36.6 						"/>
					</g>
				</g>
				<g>
					<g>
						<g>
							<path class="st43" d="M140.7,33.5l0.4-1.4c0.1-0.5,0.3-1.2,0.3-2c0.1-0.8,0-1.9-0.4-3c-0.2-0.6-0.5-1.1-1-1.7
								c-0.5-0.5-1.1-1-1.8-1.4l-3.2,6.8c-0.6-0.3-0.9-0.8-1-1c-0.1-0.2-0.1-0.4-0.1-0.2c0,0.1,0,0.4-0.1,0.8l-0.3,1.3L140.7,33.5z"
								/>
						</g>
						<path class="st44" d="M137.2,28.6l0.7-0.3c-0.1-0.4-0.4-0.8-0.7-1.1l-0.5,0.6C136.9,28,137.1,28.3,137.2,28.6z"/>
						<path class="st44" d="M137.3,30.3l0.7,0.1c0.1-0.4,0.1-0.8,0.1-1.2l-0.7,0C137.4,29.6,137.3,30,137.3,30.3z"/>
						<polygon class="st44" points="136.9,32.1 137.6,32.3 137.9,31.3 137.1,31.1 						"/>
					</g>
				</g>
			</g>
		</g>
	</g>
	<path class="st45" d="M132,27.2l7.3-8.7c0.9-1.1,1.4-2.5,1.3-3.9c-0.2-2.6-1-6.3-4.1-6.3c-4.9,0-4.7,5.4-4.7,5.4s-0.9-4.9-5.4-4.7
		c-2.7,0.1-3.5,2.8-3.7,4.9c-0.2,1.6,0.3,3.2,1.4,4.4L132,27.2z"/>
</g>
<g id="Layer_3" class="st0">
	<ellipse class="st26" cx="142" cy="61.6" rx="0.3" ry="0.3"/>
	<ellipse class="st26" cx="132.3" cy="64" rx="0.3" ry="0.3"/>
	<polygon class="st3" points="161.6,24.3 170.8,21.3 170.9,156.3 118.1,166.8 118,38.5 	"/>
	<path class="st35" d="M167.1,23.7c0,0,1.9,120.9,1.1,121.7c-0.8,0.8-55.1,13.6-55.1,13.6l-2.8-0.8c0,0,3-120.5,3.7-120.7
		c0.8-0.2,46.6-15.8,48.5-15.7C164.4,21.9,167.1,23.7,167.1,23.7z"/>
	<path class="st8" d="M126.7,134.5c0,0,2.5,6.6,1.8,7.8c-0.7,1.1-1.1,3.3-3.1,3.6s-3.9,0.3-4.8-3.4c-0.9-3.6-1.7-7.2-1.7-7.2
		L126.7,134.5z"/>
	<polygon class="st36" points="164.7,143.9 168.2,145.4 167.1,23.7 163.3,22 	"/>
	<polygon class="st37" points="113.2,159 110.3,158.2 164.7,143.9 168.2,145.4 	"/>
	<path class="st38" d="M132.5,91.5c2.6-1.1,7-1.8,10.5-0.4c3.7,1.4,5,8.1,6.8,14.8s5.4,11.4,5.4,11.4s0.9,16.5,1.4,16.5
		c0.5,0,2.9-5.7,3.3-12.6s0.2-12.6-0.8-16.9c-1-4.2-1.5-11.5-1.6-13.6c-0.1-2.1-4.2-5.1-6.3-7.9s-3.5,2.9-7.1-2.5
		c-3.6-5.4-5,1.3-7.8,1.2c-2.7-0.1-3.4-3-8.3-2.6c-4.9,0.4-9.6,15.1-12.4,18.4L132.5,91.5z"/>
	<path class="st39" d="M152.6,76.8c-0.7-0.8-1.4-1.6-2.1-2.4c-1-1.1-2-2.2-3-3.4c-2-2.3-4-4.6-6.1-6.9"/>
	<path class="st39" d="M144.6,49.6c-1.5-0.4-3.1-0.3-4.5,0.3c-0.5,0.2-1.1,0.5-1.3,1.1c-0.2,0.4-0.1,0.9,0,1.4
		c0.2,1.2,0.5,2.3,0.8,3.5"/>
	<path class="st39" d="M137,44c-0.3-1.3-1.5-2.1-2.6-2.4c-1.2-0.3-2.3,0-3.5,0.2c-0.3,0.1-0.6,0.1-0.9,0.4c-0.2,0.2-0.3,0.4-0.3,0.7
		c-0.4,1.2-0.5,2.6-0.2,3.9"/>
	<path class="st39" d="M155.4,108.6c-1.3,3.5-3.7,6.7-3.3,10.5c0.4,4,3.9,7.3,4.1,11.3"/>
	<path class="st39" d="M119.4,119.5c-0.3-4.1-0.6-8.3-1-12.4c-0.1-1.1-0.2-2.1-0.2-3.2c0-3.6,0.8-7.1,0-10.7"/>
	<path class="st39" d="M136,136.9c-0.2-4.9-0.2-9.9-0.1-14.8c0-1.6,0.1-3.3,0-4.9c-0.2-2.4-0.8-4.8-1-7.2c-0.2-2.8,0-5.5,0.2-8.2"/>
	<path class="st46" d="M134.3,80.1c-0.5,2.7,1.2,9.5-0.2,9.8c-1.4,0.3-8.1,1.3-8.1-0.2c0-1.5,0.5-9.9,0.5-9.9L134.3,80.1z"/>
	<ellipse transform="matrix(0.97 -0.2433 0.2433 0.97 -19.4341 41.0494)" class="st41" cx="156.5" cy="99.2" rx="3.8" ry="3.3"/>
	<path class="st6" d="M151.4,47.3c-4.1-6.5-14.7-8.9-20.2-2.8c-6.4,7.1-1.3,20.5,0.6,20.7c1.7,0.2,3.1-9.4,4.7-9.1
		c1.4,0.3,1.3,7.8,2.7,8c1.4,0.2,2.2-7.7,5-8c2.8-0.3,4.8,7.3,6.8,7C153.2,62.8,155.3,53.4,151.4,47.3z"/>
	<path class="st17" d="M136.2,62.9l-0.5,8.8c0,0-4.1-3.2-6.4-2.4c-2.3,0.8-3,3.5-6.1,3.6c-3.1,0.1-3-5.4-5.6-5s-3.8,0.7-3.8,0.7
		l-0.1-10.2c0,0,3.7-1.3,5.6,0.3s3.3,4,6,3.3s0.9-3.7,5.8-2.3C136,61.2,136.2,62.9,136.2,62.9z"/>
	<path class="st7" d="M126.5,128l0.8,5c0,0-9.2,5.1-9.4,1.7c-0.2-3.3-0.5-5.8-0.5-5.8L126.5,128z"/>
	<path class="st42" d="M149.1,115.1c0,0,0.6,5.3-0.6,5.6c-1.2,0.3-8.5,0.6-8.5,0.6l-1-6.2L149.1,115.1z"/>
	<path class="st22" d="M132.6,51.2c0,0-0.9-0.5-1.5-2.7c-0.5-2.2,0.7-4.1,2.6-3.6c1.9,0.5,3.4,1.2,3.2,3.2s-1.5,4.6-2.5,4.2
		C133.4,52,132.6,51.2,132.6,51.2z"/>
	<path class="st29" d="M123.5,112.2l1.3,6.4c0,0,3.8-1,3-3.7C126.9,112.3,123.5,112.2,123.5,112.2z"/>
	<path class="st39" d="M161,72.5c-1.8-2.4-3.7-4.8-6-6.5c-0.9-0.6-1.8-1.2-2.6-1.8c-0.9-0.7-1.7-1.6-2.5-2.4
		c-2.2-2.3-4.3-4.6-6.5-6.8"/>
	<path class="st39" d="M149.6,54.6c-0.8,0.9-1.7,1.7-2.5,2.6c-0.7,0.7-1.4,1.4-2,2.2c-0.5,0.6-0.9,1.1-1.3,1.8
		c-0.1,0.2-0.3,0.4-0.3,0.7c-0.1,0.4-0.2,1-0.6,1.1"/>
	<path class="st39" d="M154,59.7c-0.2,1.1-0.9,2-1.6,2.9c-0.7,0.9-1.4,1.8-2.1,2.7c-0.5,0.7-1.1,1.3-1.3,2.2c-0.2,0.8-0.3,2-1,2.3
		c0.2,0.3,0.2,0.8,0,1.1"/>
	<path class="st47" d="M84.5,108.9c0.1-1.5,0.1-3,0.1-4c0-4-0.5-5,0-6.3c0.7-1.9,1.9-0.9,2.7-2.7c1.1-2.5-0.5-5.9,0.5-7.6
		c0.4-0.7,0.9-0.6,1.9-0.6c1.9-0.1,5.4-0.3,7.7-2.9c1.3-1.5,1.6-3,2.7-2.9c1.2,0.1,1.8,1.9,2.4,1.5c0.6-0.5,0.1-2.8,0.6-4
		c1.1-2.3,5.1,0.9,10.3,3.1c6.6,2.8,5.2,3.1,9,5.7c5.4,3.8,9,7.8,11.3,6.1c1.2-0.9,0.9-3.1,2.6-4.2c1.8-1.2,2.9,0.8,5-0.2
		c1.6-0.8,1.8-2.3,3.1-3.4c2.5-1.9,6.3-1,7.3,2.1c0.7,1.9-0.2,3.2-0.9,9.2c-0.6,5.5-0.5,10-0.4,12.2c0.3,7.9,1.4,8.1,0.8,11.7
		c-0.7,3.9-2.2,5.3-2.3,9.9c0,1.8,0.2,1.6,0.3,4c0.1,5.1-1,6.3-1,9.9c0,4.9,2.2,5.2,2.1,9.2c-0.2,4.9-3.3,5.7-3.3,10.1
		c0,4.5,3.4,5.6,3.2,10.1c-0.1,2.7-1.4,2.7-3.1,8.8c-1,3.4-0.8,4.1-1.5,5.2c-1.4,2.1-2.9,1-5.9,1.7c-3.7,0.9-3.9,3.1-6.5,3.6
		c-3.6,0.6-4.4-3.5-8.6-5.5c-7.5-3.5-10.6,7-17.5,2.9c-2.5-1.5-4.9-4.6-7.4-2.9c-1.2,0.8-2.1,2.4-3.3,1.9c-1.2-0.5-1.1-2.4-2.3-3.6
		c-2-1.8-3.9,1.6-5.4,0c-1-1.1-0.5-2.9-1.4-8.8c-0.5-2.9-0.6-2.4-1.5-7.6c-1.3-6.8-1.2-8.4-1-9.7c0.4-2.8,1.4-2.7,1.4-4.8
		c0.1-3.6-2.4-5-2.2-8.2c0.2-2,1.2-1.7,1.8-4c1.1-4.4-2.3-8-1.5-14.1c0.3-2.4,0.9-2.4,0.9-4.4c0-4-2.4-4.8-2.4-8.4
		C82.4,114.2,84,113.8,84.5,108.9z"/>
	<path class="st38" d="M141.8,65.6c0.6-2.4,1.1-6.4,0.4-9.5c-0.8-3.3-4.5-4.3-8.3-5.8c-3.7-1.5-6.4-4.6-6.4-4.6s-9.3-0.3-9.3-0.8
		c0-0.5,3.3-2.8,7.2-3.3c3.9-0.5,7.2-0.6,9.6,0.3s6.5,1.1,7.7,1.1s2.8,3.6,4.4,5.5c1.6,1.8-1.7,3.3,1.3,6.3c3,3.1-0.8,4.6-0.8,7.1
		c0,2.5,1.7,3,1.4,7.4c-0.3,4.5-8.7,9.1-10.6,11.8L141.8,65.6z"/>
	<path class="st48" d="M131,80.2c-1.4-1.4-3.8-2.8-6-3.2c-2.2-0.4-8.9,3.8-9.3,6.7c0,0-8.1-1.5-8-1.2c0,0,8.9-12,7.6-16.7
		c-1.3-4.7-6.3-14.1-0.3-16.6c6-2.5,12.9-3.5,12.9-3.5l13.3,5.1c1.8,0.7,3,2.3,3.2,4.2l0.3,10.4c0,0.2,0,0.5-0.1,0.7l-4.9,12.9
		c0.3,1-0.2,4-3.6,3.9C136,82.9,132.3,81.5,131,80.2z"/>
	<path class="st23" d="M141.7,46.1c0.3,0.1,0.5,0.3,0.7,0.6c0.7,1.1,2,3.8-1.1,5.5c-3.9,2.1-14,1.5-17,5.2s5,9.2,3.6,12.4
		c-1.5,3.3-5.6,3.2-5.6,5.5c0,2.3,0.8,3.8,0.8,3.8s-20.5-2.1-21.6-12.3s4.4-13.5,8.5-15.4c4.1-1.9,7.3-6.7,8.9-6.8
		c1.7-0.1,2.9-0.3,3.6-1c0.7-0.8,14.2,0.1,15.2,0.5C140,44.9,140.6,45.7,141.7,46.1z"/>
	<path class="st24" d="M134.7,57.7c0,0-2.5,0.8-4.4,1.2c-1.9,0.4-2.9,2.2-2.9,3.6c0,1.3-2.9-3.3,0.5-4.5
		C131.3,56.9,134.7,56.4,134.7,57.7z"/>
	<path class="st26" d="M139.1,57.5c0.3,0.6,0.7,1.2,2.1,1.5s2.2-0.7,3.7-0.2s2.7,1.9,2.9,1.5c0.2-0.4-1-2.4-2.7-2.7
		S139.1,57.5,139.1,57.5z"/>
	<path class="st27" d="M132.9,69.8c-0.9,0.2,0,3.6,1.3,2.6C135.4,71.4,135.3,69.3,132.9,69.8z"/>
	<path class="st28" d="M137.7,74.6c0,0,0.1,2.9,1.9,2.4s2-2.7,2-2.7L137.7,74.6z"/>
	<path class="st29" d="M120.2,62.3l0.4,6.5c0,0-4.4-0.1-4.2-2.8C116.5,63.3,120.2,62.3,120.2,62.3z"/>
	<g class="st31">
		<path class="st32" d="M139.3,71.8c0.9-0.2,4.2-2.6,4.2-2.6l-4.9-4.6l-1-3.8l-1.9-0.2L139.3,71.8z"/>
		<g>
			<path d="M139.3,71.8c0.4-0.1,0.7-0.4,1.1-0.6c0.3-0.2,0.7-0.4,1-0.7l2-1.4l0,0.1l-5-4.6l0,0l0,0l-1-3.8l0.1,0.1l-1.9-0.2l0.1-0.1
				C136.9,64.3,138.1,68,139.3,71.8z M139.3,71.8c-1.3-3.7-2.5-7.4-3.8-11.2l-0.1-0.2l0.2,0l1.9,0.2l0.1,0l0,0.1l1,3.8l0-0.1
				l4.9,4.6l0.1,0.1l-0.1,0c-0.7,0.5-1.3,0.9-2,1.3c-0.3,0.2-0.7,0.4-1.1,0.6C140,71.5,139.7,71.7,139.3,71.8z"/>
		</g>
	</g>
	<path class="st33" d="M130.8,69.9c0.2,0.5,0,1.1,0,1.6c0,0.5,0.2,1.2,0.7,1.3"/>
	<ellipse class="st26" cx="132.8" cy="65" rx="0.3" ry="0.3"/>
	<ellipse class="st26" cx="143.5" cy="63.2" rx="0.3" ry="0.3"/>
	<path class="st45" d="M146,94.4c0,0,1.2,6,3.2,6c2,0,13.6-1.7,13.6-1.7l-0.8-7.1L146,94.4z"/>
	<path class="st15" d="M162.4,97.6l-1-6.6c0,0,3.4,0.1,5-0.5c1.5-0.6,3.4-1.6,4-0.9s-2.6,2.1-2.6,2.1v0.9c0,0,4.6-1.2,4.8,0.3
		s-4.7,2.3-4.7,2.3s-0.5,0.8,0.3,0.8s4.3-1.1,4.3,0c0,1.1-4,1.4-4,1.4s5.2,0.5,4.2,1.4c-0.9,0.9-5.7-0.3-5.7,0.1
		c0,0.3,2.5,3,1.5,3.2c-1,0.1-3.2-0.6-4.4-2.1C163.1,98.5,162.4,97.6,162.4,97.6z"/>
	<path class="st30" d="M128.4,182.8c0,0-7.1,30.8-2.6,36.9s9,9,5.5,10s-11.9-7.4-11.9-12.1c0-4.7,4.5-38.5,4.7-37.9L128.4,182.8z"/>
	<path class="st30" d="M95.6,174.8c0,0-2,28.8-4.4,35.9c-3.2,9.4-6.1,11.5-8.8,9.1c-1.8-1.6,5.4-10.2,5.4-14.9s3.3-33.8,3.5-33.3
		L95.6,174.8z"/>
	<g class="st31">
		<path class="st49" d="M135.3,65.4l-3.8,0.7c0,0-0.3-2.6,1.3-2.7C134.5,63.3,135.3,65.4,135.3,65.4z"/>
		<g>
			<path class="st50" d="M135.3,65.4c-1.1,0.3-2.4,0.8-3.7,1.1l-0.4,0.1l0-0.4c-0.1-0.6-0.1-1.2,0.1-1.8c0.1-0.3,0.3-0.6,0.5-0.9
				c0.3-0.3,0.6-0.4,1-0.4c0.7,0,1.3,0.3,1.7,0.8C134.9,64.3,135.2,64.8,135.3,65.4z M135.3,65.4c-0.3-0.5-0.7-0.9-1.1-1.2
				c-0.2-0.2-0.4-0.3-0.7-0.4c-0.2-0.1-0.5-0.1-0.7-0.1c-0.4,0.1-0.7,0.3-0.8,0.8c-0.1,0.5-0.2,1-0.1,1.5l-0.4-0.3
				C132.7,65.6,133.9,65.5,135.3,65.4z"/>
		</g>
	</g>
	<g class="st31">
		<path class="st49" d="M145,64.4l-3.8,0.2c0,0,0.1-2.6,1.7-2.5S145,64.4,145,64.4z"/>
		<g>
			<path class="st50" d="M145,64.4c-1.1,0.2-2.5,0.4-3.8,0.5l-0.4,0l0-0.4c0-0.6,0.1-1.2,0.4-1.8c0.1-0.3,0.3-0.6,0.6-0.8
				c0.3-0.2,0.7-0.3,1-0.2c0.7,0.1,1.2,0.5,1.6,1C144.8,63.3,145,63.9,145,64.4z M145,64.4c-0.2-0.5-0.5-1-0.9-1.4
				c-0.2-0.2-0.4-0.3-0.6-0.5c-0.2-0.1-0.4-0.2-0.7-0.2c-0.4,0-0.7,0.2-1,0.7c-0.2,0.4-0.3,1-0.4,1.5l-0.4-0.4
				C142.4,64.2,143.6,64.4,145,64.4z"/>
		</g>
	</g>
</g>
<g id="simplified_-_shapes" class="st0">
	<rect x="20" y="18" class="st51" width="5" height="211"/>
	<path class="st52" d="M51,219c7-9,3-51,25-73s55,1,66-24s-17-36,6-57s36,10,47-8"/>
	<circle class="st53" cx="55" cy="56" r="11"/>
	<circle class="st45" cx="135" cy="47" r="5"/>
	<path class="st19" d="M229.9,43c0.1-0.7,0.1-1.3,0.1-2c0-12.7-10.3-23-23-23s-23,10.3-23,23c0,0.7,0,1.3,0.1,2H229.9z"/>
	<polyline class="st54" points="77,231 237,231 238,92 	"/>
	<polygon class="st34" points="185,147.9 185.9,210.9 217.8,209 	"/>
</g>
<g id="simplified_face">
	<rect x="62" y="19" class="st55" width="5" height="211"/>
	<path class="st56" d="M38,192c7-9,3-51,25-73s55,1,66-24s-17-36,6-57s36,10,47-8"/>
	<circle class="st57" cx="108" cy="82" r="11"/>
	<circle class="st58" cx="183" cy="77" r="5"/>
	<path class="st49" d="M129.1,156c-0.1,0.7-0.1,1.3-0.1,2c0,12.7,10.3,23,23,23s23-10.3,23-23c0-0.7,0-1.3-0.1-2H129.1z"/>
	<polygon class="st59" points="153.7,75 151.1,138 183.1,137.8 	"/>
	<polyline class="st60" points="55,209 215,209 216,70 	"/>
</g>
<g id="simplified_face-2" class="st0">
	<rect x="90" y="12" transform="matrix(-1 -1.224647e-16 1.224647e-16 -1 185 235)" class="st51" width="5" height="211"/>
	<path class="st52" d="M93.3,12.8c7.5,8.6,49.5,12.7,66.9,38.5s-14.1,49.6,8.4,65.2s35,13,38,26c7,30.3-22.6,30.8-7,45"/>
	<circle class="st53" cx="77" cy="72" r="11"/>
	<circle class="st45" cx="131" cy="74" r="5"/>
	<path class="st19" d="M77.1,152c-0.1,0.7-0.1,1.3-0.1,2c0,12.7,10.3,23,23,23s23-10.3,23-23c0-0.7,0-1.3-0.1-2H77.1z"/>
	<polygon class="st34" points="94.9,74.3 94,137.4 125.9,136.4 	"/>
	<polyline class="st54" points="62,27 62,187 201,188 	"/>
</g>
</svg>
